<svg width="360" height="357" viewBox="0 0 360 357" fill="none" xmlns="http://www.w3.org/2000/svg">
<rect width="360" height="357" fill="#1E1E1E"/>
<g clip-path="url(#clip0_0_1)">
<rect x="3" y="3" width="353" height="352" rx="100" fill="white"/>
<path d="M120.076 267C114.38 267 111.531 263.948 111.531 257.845V101.106C111.531 95.0029 114.38 91.9512 120.076 91.9512H176.595C201.741 91.9512 220.092 95.8574 231.648 103.67C243.204 111.401 248.982 124.015 248.982 141.512C248.982 154.533 244.303 164.909 234.944 172.64C225.586 180.371 213.704 185.498 199.3 188.021V188.265C207.112 191.194 213.012 195.263 217 200.472C220.988 205.68 224.243 210.237 226.766 214.144L253.621 256.502C258.097 263.501 256.551 267 248.982 267H227.742C223.266 267 219.604 264.599 216.756 259.798L192.098 218.66C189.412 214.266 184.489 209.464 177.327 204.256C170.247 198.966 163.208 196.321 156.209 196.321H147.176V257.845C147.176 263.948 144.327 267 138.631 267H120.076ZM147.176 166.048H169.026C185.302 166.048 196.858 164.217 203.694 160.555C210.612 156.811 214.07 150.911 214.07 142.854C214.07 134.065 210.734 128.369 204.061 125.765C197.469 123.079 187.744 121.736 174.886 121.736H147.176V166.048Z" fill="black"/>
</g>
<defs>
<clipPath id="clip0_0_1">
<rect width="360" height="357" fill="white"/>
</clipPath>
</defs>
</svg>
